<svg width="768" height="125" viewBox="0 0 768 125" fill="none" xmlns="http://www.w3.org/2000/svg">
<rect width="768" height="124.695" fill="black"/>
<path d="M61.125 94L40.2188 36.1562L33.8906 35.4062V25.75H63.8438V35.4062L57.8906 36.3438L69.8438 74.6875L70.4531 77.3594H70.7344L71.3438 74.8281L82.9219 36.3438L75.7969 35.4062V25.75H103.734V35.4062L97.2188 36.1562L78.5625 94H61.125ZM106.031 94V84.3906L113.109 82.8906V36.9062L106.031 35.4062V25.75H160.547V45.4375H148.125L147.75 38.4062H129.562V52.4219H151.359V65.0312H129.562V81.2969H148.641L149.016 73.9375H161.297V94H106.031ZM167.719 94V84.3906L174.797 82.8906V36.9062L167.719 35.4062V25.75H199.875V35.4062L191.25 36.9062V81.3906H207.469L207.844 71.875H220.406V94H167.719ZM253.734 94.9844C249.391 94.9844 245.406 94.125 241.781 92.4062C238.188 90.6562 235.062 88.2188 232.406 85.0938C229.781 81.9688 227.75 78.3125 226.312 74.125C224.875 69.9062 224.156 65.3281 224.156 60.3906V59.3125C224.156 54.4062 224.875 49.8594 226.312 45.6719C227.781 41.4531 229.828 37.7812 232.453 34.6562C235.078 31.5312 238.188 29.1094 241.781 27.3906C245.375 25.6406 249.328 24.7656 253.641 24.7656C257.828 24.7656 261.734 25.6406 265.359 27.3906C269.016 29.1094 272.203 31.5312 274.922 34.6562C277.641 37.7812 279.766 41.4531 281.297 45.6719C282.828 49.8594 283.594 54.4062 283.594 59.3125V60.3906C283.594 65.3594 282.828 69.9531 281.297 74.1719C279.797 78.3594 277.688 82.0156 274.969 85.1406C272.25 88.2344 269.078 90.6562 265.453 92.4062C261.828 94.125 257.922 94.9844 253.734 94.9844ZM253.734 82.5156C257.328 82.5156 260.203 81.4531 262.359 79.3281C264.547 77.2031 266.141 74.4531 267.141 71.0781C268.141 67.6719 268.641 64.1094 268.641 60.3906V59.2188C268.641 56.5312 268.359 53.8906 267.797 51.2969C267.266 48.6719 266.406 46.3125 265.219 44.2188C264.062 42.0938 262.516 40.4062 260.578 39.1562C258.672 37.9062 256.359 37.2812 253.641 37.2812C250.328 37.2812 247.594 38.1875 245.438 40C243.312 41.7812 241.734 44.3125 240.703 47.5938C239.703 50.875 239.203 54.75 239.203 59.2188V60.3906C239.203 63.1094 239.422 65.7812 239.859 68.4062C240.328 71.0312 241.109 73.4062 242.203 75.5312C243.297 77.6562 244.781 79.3594 246.656 80.6406C248.531 81.8906 250.891 82.5156 253.734 82.5156ZM314.953 94.9844C309.547 94.9844 304.75 94.4531 300.562 93.3906C296.406 92.3281 292.25 90.3281 288.094 87.3906V69.6719H300.422L301.781 78.7656C302.75 79.8906 304.453 80.8438 306.891 81.625C309.359 82.375 312.047 82.75 314.953 82.75C316.984 82.75 318.672 82.5 320.016 82C321.391 81.4688 322.422 80.7031 323.109 79.7031C323.797 78.7031 324.141 77.5 324.141 76.0938C324.141 74.6875 323.797 73.4531 323.109 72.3906C322.422 71.2969 321.328 70.2969 319.828 69.3906C318.328 68.4531 316.375 67.5 313.969 66.5312C311.125 65.5938 308.25 64.5625 305.344 63.4375C302.469 62.2812 299.812 60.875 297.375 59.2188C294.938 57.5625 292.969 55.5156 291.469 53.0781C290 50.6094 289.266 47.5938 289.266 44.0312C289.266 39.9062 290.406 36.4375 292.688 33.625C294.969 30.8125 297.969 28.6719 301.688 27.2031C305.406 25.7031 309.391 24.9219 313.641 24.8594C319.016 24.7344 323.781 25.2969 327.938 26.5469C332.094 27.7656 335.75 29.625 338.906 32.125V48.5781H327.094L325.266 39.4375C324.234 38.9062 322.766 38.4219 320.859 37.9844C318.953 37.5469 316.922 37.3281 314.766 37.3281C312.797 37.3281 311.094 37.5938 309.656 38.125C308.219 38.6562 307.109 39.4375 306.328 40.4688C305.547 41.4688 305.156 42.6719 305.156 44.0781C305.156 45.7656 305.828 47.2031 307.172 48.3906C308.547 49.5469 310.172 50.5312 312.047 51.3438C313.953 52.1562 315.688 52.875 317.25 53.5C324.75 55.7812 330.438 58.6406 334.312 62.0781C338.219 65.4844 340.172 70.125 340.172 76C340.172 80.375 339.016 83.9688 336.703 86.7812C334.391 89.5625 331.312 91.625 327.469 92.9688C323.656 94.3125 319.484 94.9844 314.953 94.9844ZM343.875 94V84.3906L350.672 82.8906V36.9062L343.875 35.4062V25.75H350.672H375.844C381.062 25.75 385.609 26.7031 389.484 28.6094C393.328 30.5156 396.297 33.1719 398.391 36.5781C400.484 39.9531 401.531 43.8906 401.531 48.3906C401.531 52.8906 400.484 56.8281 398.391 60.2031C396.297 63.5781 393.312 66.2031 389.438 68.0781C385.594 69.9531 381.062 70.8906 375.844 70.8906H366.516V82.8906L373.359 84.3906V94H343.875ZM366.516 58.2812H375.844C379.062 58.2812 381.5 57.375 383.156 55.5625C384.844 53.7188 385.688 51.3594 385.688 48.4844C385.688 45.5156 384.844 43.0781 383.156 41.1719C381.5 39.2656 379.062 38.3125 375.844 38.3125H366.516V58.2812ZM434.484 94.9844C430.141 94.9844 426.156 94.125 422.531 92.4062C418.938 90.6562 415.812 88.2188 413.156 85.0938C410.531 81.9688 408.5 78.3125 407.062 74.125C405.625 69.9062 404.906 65.3281 404.906 60.3906V59.3125C404.906 54.4062 405.625 49.8594 407.062 45.6719C408.531 41.4531 410.578 37.7812 413.203 34.6562C415.828 31.5312 418.938 29.1094 422.531 27.3906C426.125 25.6406 430.078 24.7656 434.391 24.7656C438.578 24.7656 442.484 25.6406 446.109 27.3906C449.766 29.1094 452.953 31.5312 455.672 34.6562C458.391 37.7812 460.516 41.4531 462.047 45.6719C463.578 49.8594 464.344 54.4062 464.344 59.3125V60.3906C464.344 65.3594 463.578 69.9531 462.047 74.1719C460.547 78.3594 458.438 82.0156 455.719 85.1406C453 88.2344 449.828 90.6562 446.203 92.4062C442.578 94.125 438.672 94.9844 434.484 94.9844ZM434.484 82.5156C438.078 82.5156 440.953 81.4531 443.109 79.3281C445.297 77.2031 446.891 74.4531 447.891 71.0781C448.891 67.6719 449.391 64.1094 449.391 60.3906V59.2188C449.391 56.5312 449.109 53.8906 448.547 51.2969C448.016 48.6719 447.156 46.3125 445.969 44.2188C444.812 42.0938 443.266 40.4062 441.328 39.1562C439.422 37.9062 437.109 37.2812 434.391 37.2812C431.078 37.2812 428.344 38.1875 426.188 40C424.062 41.7812 422.484 44.3125 421.453 47.5938C420.453 50.875 419.953 54.75 419.953 59.2188V60.3906C419.953 63.1094 420.172 65.7812 420.609 68.4062C421.078 71.0312 421.859 73.4062 422.953 75.5312C424.047 77.6562 425.531 79.3594 427.406 80.6406C429.281 81.8906 431.641 82.5156 434.484 82.5156ZM468.094 94V84.3906L474.984 82.8906V36.9062L468.094 35.4062V25.7031H500.672C505.922 25.7031 510.484 26.5625 514.359 28.2812C518.203 30 521.172 32.4531 523.266 35.6406C525.359 38.7969 526.406 42.5469 526.406 46.8906C526.406 48.8906 526.141 50.8281 525.609 52.7031C525.078 54.5469 524.297 56.3281 523.266 58.0469C521.141 61.4844 518.234 64.25 514.547 66.3438C510.891 68.4062 506.703 69.4219 501.984 69.3906L490.922 69.25V82.8906L497.812 84.3906V94H468.094ZM510.047 94L501.141 67.375L515.016 62.5L523.078 82.7969L529.359 84.4375V94H510.047ZM490.922 56.6406H500.859C503.953 56.6406 506.328 55.9062 507.984 54.4375C509.672 52.9375 510.516 50.7812 510.516 47.9688C510.516 45.0625 509.656 42.7344 507.938 40.9844C506.25 39.2031 503.828 38.3125 500.672 38.3125H490.922V56.6406ZM546.703 94V84.3906L553.828 82.8906V38.5H543.281L542.859 45.8594H530.438V25.75H593.859V45.8594H581.297L580.922 38.5H570.281V82.8906L577.406 84.3906V94H546.703ZM590.25 94V80.4062H606.609V94H590.25ZM611.625 94V84.3906L618.375 82.6562V37.1875L611.625 35.4062V25.75H618.375H641.672C647.453 25.75 652.578 27.1719 657.047 30.0156C661.484 32.8906 664.969 36.8594 667.5 41.9219C670.031 46.9531 671.297 52.7656 671.297 59.3594V60.4375C671.297 67.0312 670.031 72.8438 667.5 77.875C664.969 82.9375 661.469 86.8906 657 89.7344C652.562 92.5781 647.453 94 641.672 94H611.625ZM633.797 81.5312H640.875C643.781 81.5312 646.328 80.7812 648.516 79.2812C650.891 77.625 652.688 75.1875 653.906 71.9688C655.125 68.7188 655.734 64.875 655.734 60.4375V59.3125C655.734 53.7812 654.812 49.25 652.969 45.7188C651.719 43.3438 650.078 41.5156 648.047 40.2344C646.047 38.9219 643.656 38.2656 640.875 38.2656H633.797V81.5312ZM675.188 94V84.3906L682.266 82.8906V36.9062L675.188 35.4062V25.75H729.703V45.4375H717.281L716.906 38.4062H698.719V52.4219H720.516V65.0312H698.719V81.2969H717.797L718.172 73.9375H730.453V94H675.188Z" fill="white"/>
</svg>
